<svg xmlns="http://www.w3.org/2000/svg" viewBox="0 0 100 120" fill="none">
  <!-- Syrian Golden Eagle Emblem -->
  <defs>
    <linearGradient id="eagleGold" x1="0%" y1="0%" x2="100%" y2="100%">
      <stop offset="0%" style="stop-color:#e1c37e"/>
      <stop offset="50%" style="stop-color:#d4b06a"/>
      <stop offset="100%" style="stop-color:#b9944d"/>
    </linearGradient>
  </defs>
  
  <!-- Eagle Body -->
  <path d="M50 10 L65 25 L70 20 L75 30 L85 35 L75 40 L80 50 L70 45 L65 55 L60 50 L55 60 L50 55 L45 60 L40 50 L35 55 L30 45 L20 50 L25 40 L15 35 L25 30 L30 20 L35 25 L50 10Z" 
        fill="url(#eagleGold)" stroke="#b9944d" stroke-width="1"/>
  
  <!-- Eagle Head -->
  <circle cx="50" cy="22" r="8" fill="url(#eagleGold)" stroke="#b9944d" stroke-width="1"/>
  
  <!-- Eagle Eyes -->
  <circle cx="47" cy="20" r="1.5" fill="#002323"/>
  <circle cx="53" cy="20" r="1.5" fill="#002323"/>
  
  <!-- Eagle Beak -->
  <path d="M50 23 L48 27 L50 26 L52 27 L50 23Z" fill="#b9944d"/>
  
  <!-- Wings Spread -->
  <path d="M20 50 L5 70 L15 65 L10 80 L25 70 L20 85 L35 75 L40 85 L50 70 L60 85 L65 75 L80 85 L75 70 L90 80 L85 65 L95 70 L80 50" 
        fill="url(#eagleGold)" stroke="#b9944d" stroke-width="1" opacity="0.9"/>
  
  <!-- Tail Feathers -->
  <path d="M40 85 L50 110 L60 85" fill="url(#eagleGold)" stroke="#b9944d" stroke-width="1"/>
  
  <!-- Chest Detail -->
  <path d="M40 45 L50 55 L60 45 L55 50 L50 48 L45 50 L40 45Z" fill="#b9944d" opacity="0.5"/>
  
  <!-- Shield Base -->
  <path d="M30 95 L50 115 L70 95 L70 75 L50 85 L30 75 L30 95Z" 
        fill="url(#eagleGold)" stroke="#b9944d" stroke-width="1" opacity="0.8"/>
  
  <!-- Stars on Shield -->
  <polygon points="50,78 51,81 54,81 52,83 53,86 50,84 47,86 48,83 46,81 49,81" fill="#002323"/>
  <polygon points="40,88 41,90 43,90 41.5,91.5 42,94 40,92.5 38,94 38.5,91.5 37,90 39,90" fill="#002323" transform="scale(0.6) translate(28, 50)"/>
  <polygon points="60,88 61,90 63,90 61.5,91.5 62,94 60,92.5 58,94 58.5,91.5 57,90 59,90" fill="#002323" transform="scale(0.6) translate(35, 50)"/>
</svg>